<?xml version="1.0" encoding="utf-8"?>
<!-- Generator: Adobe Illustrator 27.5.0, SVG Export Plug-In . SVG Version: 6.00 Build 0)  -->
<svg version="1.1" xmlns="http://www.w3.org/2000/svg" xmlns:xlink="http://www.w3.org/1999/xlink" x="0px" y="0px"
width="50" height="50"
	 viewBox="0 0 450 450" style="enable-background:new 0 0 450 450;" xml:space="preserve">
<g id="OBJECTS">
	<g>
		<g>
			<g>
				<g>
					<g>
						<path style="fill:#017DC0;" d="M341.081,192.047v91.83c-11.56-23.06-63-38.57-63-38.57v-60.529
							c0-36.534,52.518-43.236,61.198-7.749C340.457,181.842,341.081,186.872,341.081,192.047z"/>
					</g>
				</g>
				<g>
					<g>
						<path style="fill:#017DC0;" d="M158.921,313.209v-91.83c11.56,23.06,63,38.57,63,38.57v54.92
							c0,40.243-60.139,42.805-62.855,2.653C158.97,316.096,158.921,314.658,158.921,313.209z"/>
					</g>
				</g>
			</g>
			<g>
				<path style="opacity:0.2;fill:#1F1E21;" d="M341.079,252.08v24.5c-11.56-23.06-63-38.57-63-38.57v-27.26h0.42
					C306.389,210.75,330.669,227.57,341.079,252.08z"/>
			</g>
			<g>
				<path style="opacity:0.2;fill:#1F1E21;" d="M158.919,247.92v-24.5c11.56,23.06,63,38.57,63,38.57v27.26h-0.42
					C193.609,289.25,169.329,272.43,158.919,247.92z"/>
			</g>
			<g>
				<g>
					<path style="fill:#00B5E8;" d="M341.079,274.27v38.23c0,7.91-1.46,15.49-4.13,22.46c-10.37-30.66-39.13-52.84-73.16-53.4
						c-0.44-0.04-0.88-0.06-1.33-0.06h-40.62c-33.71,0-61.23-26.47-62.92-59.76V187.5c0-7.91,1.46-15.47,4.12-22.44
						c3.91,11.58,10.45,21.95,18.91,30.41c14.23,14.23,33.89,23.03,55.6,23.03h40.95C310.839,218.5,337.499,242.88,341.079,274.27z"
						/>
					<path style="fill:#00B5E8;" d="M341.079,274.27v38.23c0,7.91-1.46,15.49-4.13,22.46c-10.37-30.66-39.13-52.84-73.16-53.4
						c-0.44-0.04-0.88-0.06-1.33-0.06h-40.62c-33.71,0-61.23-26.47-62.92-59.76V187.5c0-7.91,1.46-15.47,4.12-22.44
						c3.91,11.58,10.45,21.95,18.91,30.41c14.23,14.23,33.89,23.03,55.6,23.03h40.95C310.839,218.5,337.499,242.88,341.079,274.27z"
						/>
					<g>
						<path style="opacity:0.5;fill:#FFFFFF;" d="M341.079,274.27v7.29c-3.63-31.85-30.68-56.59-63.5-56.59h-41.55
							c-22.03,0-41.811-9.101-56.42-23.37c-16.611-16.225-17.3-34.63-16.57-36.54c3.91,11.58,10.45,21.95,18.91,30.41
							c14.23,14.23,33.89,23.03,55.6,23.03h40.95C310.839,218.5,337.499,242.88,341.079,274.27z"/>
					</g>
					<path style="fill:#017DC0;" d="M336.949,334.96c-3.74,9.82-9.87,18.46-17.68,25.21c-11.04,9.55-25.44,15.33-41.19,15.33v-78.38
						c0-8.18-6.28-14.89-14.29-15.56C297.819,282.12,326.579,304.3,336.949,334.96z"/>
				</g>
			</g>
			<g>
				<path style="fill:#00B5E8;" d="M237.549,218.5c-21.71,0-41.37-8.8-55.6-23.03c-8.46-8.46-15-18.83-18.91-30.41
					c3.73-9.8,9.84-18.43,17.63-25.18c11.05-9.58,25.47-15.38,41.25-15.38v78.38C221.919,211.51,228.919,218.5,237.549,218.5z"/>
				<path style="opacity:0.7;fill:#1F1E21;" d="M237.549,218.5c-21.71,0-41.37-8.8-55.6-23.03c-8.46-8.46-15-18.83-18.91-30.41
					c1.19-3.14,2.63-6.16,4.29-9.03c3.25,11.42,10.45,25.32,17.32,33.78c11.88,14.66,29,25.06,48.89,28.17h0.01
					C234.819,218.32,236.169,218.5,237.549,218.5z"/>
			</g>
			<g>
				<path style="fill:#00B5E8;" d="M262.447,281.5c21.71,0,41.37,8.8,55.6,23.03c8.46,8.46,15,18.83,18.91,30.41
					c-3.73,9.8-9.84,18.43-17.63,25.18c-11.05,9.58-25.47,15.38-41.25,15.38v-78.38C278.077,288.49,271.077,281.5,262.447,281.5z"/>
				<path style="opacity:0.7;fill:#1F1E21;" d="M262.447,281.5c21.71,0,41.37,8.8,55.6,23.03c8.46,8.46,15,18.83,18.91,30.41
					c-1.19,3.14-2.63,6.16-4.29,9.03c-3.25-11.42-10.45-25.32-17.32-33.78c-11.88-14.66-29-25.06-48.89-28.17h-0.01
					C265.177,281.68,263.827,281.5,262.447,281.5z"/>
				<g>
					<g>
						<path style="fill:#F5F6F6;" d="M262.447,281.5c0,0,0.382-0.004,1.098-0.013c0.716-0.001,1.767-0.036,3.103-0.019
							c1.334,0.086,2.97,0.095,4.828,0.283c0.93,0.092,1.92,0.191,2.964,0.294c1.036,0.165,2.125,0.338,3.262,0.518
							c4.526,0.826,9.776,2.143,15.126,4.328c1.338,0.542,2.665,1.17,4.026,1.767c1.319,0.683,2.685,1.319,4.007,2.062
							c1.313,0.759,2.668,1.471,3.948,2.321l1.949,1.234l1.893,1.326c2.517,1.782,4.866,3.786,7.131,5.801
							c1.086,1.061,2.191,2.075,3.229,3.149c1.022,1.048,2.026,2.144,2.974,3.232c3.81,4.346,6.746,8.896,8.989,12.912
							c1.14,2.002,2.023,3.922,2.795,5.622c0.745,1.714,1.347,3.225,1.812,4.482c0.463,1.257,0.788,2.257,0.996,2.943
							c0.215,0.683,0.33,1.047,0.33,1.047s-0.141-0.355-0.407-1.02c-0.253-0.67-0.67-1.633-1.191-2.861
							c-0.531-1.224-1.213-2.693-2.045-4.351c-0.864-1.642-1.843-3.49-3.022-5.44c-1.176-1.952-2.527-4.018-4.068-6.12
							c-1.544-2.101-3.289-4.225-5.167-6.354c-0.945-1.06-1.919-2.101-2.965-3.151c-1.022-1.034-2.127-2.025-3.202-3.053
							c-2.247-1.956-4.577-3.893-7.063-5.619l-1.843-1.322l-1.899-1.232c-1.247-0.849-2.57-1.562-3.851-2.322
							c-1.29-0.745-2.625-1.383-3.914-2.07c-1.331-0.601-2.629-1.234-3.939-1.781c-2.628-1.073-5.194-2.057-7.684-2.827
							c-2.484-0.79-4.88-1.387-7.105-1.875c-1.118-0.221-2.19-0.432-3.209-0.634c-1.028-0.159-2.002-0.311-2.918-0.453
							c-1.833-0.288-3.447-0.385-4.773-0.545C263.972,281.594,262.447,281.5,262.447,281.5z"/>
					</g>
				</g>
			</g>
			<g>
				<g>
					<path style="fill:#F5F6F6;" d="M237.549,218.5c0,0-0.382,0.004-1.098,0.013c-0.716,0.002-1.767,0.036-3.103,0.019
						c-1.334-0.086-2.97-0.095-4.828-0.283c-0.93-0.092-1.92-0.191-2.963-0.294c-1.036-0.165-2.126-0.338-3.262-0.518
						c-4.525-0.826-9.776-2.143-15.126-4.328c-1.338-0.542-2.665-1.17-4.026-1.768c-1.319-0.683-2.685-1.319-4.007-2.062
						c-1.313-0.759-2.668-1.471-3.947-2.321l-1.949-1.234l-1.893-1.326c-2.517-1.782-4.866-3.786-7.131-5.801
						c-1.085-1.061-2.191-2.075-3.229-3.149c-1.022-1.048-2.026-2.144-2.974-3.232c-3.81-4.346-6.746-8.896-8.989-12.912
						c-1.141-2.002-2.023-3.922-2.795-5.622c-0.745-1.714-1.347-3.225-1.812-4.481c-0.463-1.257-0.788-2.257-0.997-2.943
						c-0.215-0.683-0.33-1.047-0.33-1.047s0.142,0.355,0.407,1.02c0.252,0.67,0.67,1.633,1.191,2.861
						c0.531,1.224,1.213,2.693,2.045,4.351c0.864,1.642,1.843,3.49,3.022,5.44c1.176,1.951,2.527,4.018,4.068,6.12
						c1.544,2.101,3.289,4.225,5.167,6.354c0.945,1.06,1.918,2.101,2.965,3.151c1.022,1.033,2.127,2.025,3.202,3.053
						c2.247,1.956,4.577,3.893,7.063,5.619l1.843,1.322l1.899,1.232c1.247,0.849,2.57,1.562,3.851,2.322
						c1.29,0.744,2.625,1.383,3.914,2.07c1.331,0.601,2.629,1.234,3.939,1.781c2.628,1.073,5.194,2.057,7.685,2.827
						c2.484,0.79,4.88,1.387,7.105,1.875c1.118,0.221,2.19,0.432,3.209,0.634c1.028,0.16,2.002,0.311,2.918,0.453
						c1.833,0.288,3.447,0.385,4.773,0.545C236.024,218.406,237.549,218.5,237.549,218.5z"/>
				</g>
			</g>
		</g>
	</g>
</g>
</svg>
